<svg id="visual" viewBox="0 0 1920 1080" width="1920" height="1080" xmlns="http://www.w3.org/2000/svg" xmlns:xlink="http://www.w3.org/1999/xlink" version="1.1"><rect x="0" y="0" width="1920" height="1080" fill="#001122"></rect><path d="M0 751L106.7 742.2C213.3 733.3 426.7 715.7 640 686.5C853.3 657.3 1066.7 616.7 1280 598.2C1493.3 579.7 1706.7 583.3 1813.3 585.2L1920 587L1920 1081L1813.3 1081C1706.7 1081 1493.3 1081 1280 1081C1066.7 1081 853.3 1081 640 1081C426.7 1081 213.3 1081 106.7 1081L0 1081Z" fill="#9e90fc"></path><path d="M0 609L106.7 619.7C213.3 630.3 426.7 651.7 640 691.8C853.3 732 1066.7 791 1280 786.8C1493.3 782.7 1706.7 715.3 1813.3 681.7L1920 648L1920 1081L1813.3 1081C1706.7 1081 1493.3 1081 1280 1081C1066.7 1081 853.3 1081 640 1081C426.7 1081 213.3 1081 106.7 1081L0 1081Z" fill="#8e77fe"></path><path d="M0 906L106.7 890.5C213.3 875 426.7 844 640 835.7C853.3 827.3 1066.7 841.7 1280 833.5C1493.3 825.3 1706.7 794.7 1813.3 779.3L1920 764L1920 1081L1813.3 1081C1706.7 1081 1493.3 1081 1280 1081C1066.7 1081 853.3 1081 640 1081C426.7 1081 213.3 1081 106.7 1081L0 1081Z" fill="#7f5dff"></path><path d="M0 862L106.7 848.8C213.3 835.7 426.7 809.3 640 822.8C853.3 836.3 1066.7 889.7 1280 888.7C1493.3 887.7 1706.7 832.3 1813.3 804.7L1920 777L1920 1081L1813.3 1081C1706.7 1081 1493.3 1081 1280 1081C1066.7 1081 853.3 1081 640 1081C426.7 1081 213.3 1081 106.7 1081L0 1081Z" fill="#723eff"></path><path d="M0 880L106.7 903.5C213.3 927 426.7 974 640 1000.7C853.3 1027.3 1066.7 1033.7 1280 1043C1493.3 1052.3 1706.7 1064.7 1813.3 1070.8L1920 1077L1920 1081L1813.3 1081C1706.7 1081 1493.3 1081 1280 1081C1066.7 1081 853.3 1081 640 1081C426.7 1081 213.3 1081 106.7 1081L0 1081Z" fill="#6600ff"></path></svg>