<svg id="visual" viewBox="0 0 1920 56" width="1920" height="56" xmlns="http://www.w3.org/2000/svg" xmlns:xlink="http://www.w3.org/1999/xlink" version="1.1"><rect x="0" y="0" width="1920" height="56" fill="#001122"></rect><g transform="translate(-3.1367638370648017 -8.314415896585743)"><path d="M19.6 -30.8C28.6 -28.8 41.1 -29.9 47.5 -25.3C53.8 -20.7 53.9 -10.3 50.7 -1.8C47.5 6.7 41.1 13.3 37.3 22.4C33.6 31.5 32.5 43 26.8 49.9C21 56.7 10.5 58.9 2.6 54.3C-5.3 49.8 -10.5 38.5 -17.3 32.3C-24.1 26 -32.4 24.8 -36.1 20.2C-39.8 15.7 -38.9 7.8 -41.1 -1.2C-43.2 -10.3 -48.5 -20.7 -45.7 -26.9C-43 -33.1 -32.2 -35.2 -23.3 -37.2C-14.3 -39.2 -7.2 -41.1 -0.9 -39.5C5.3 -37.9 10.7 -32.8 19.6 -30.8" fill="#FCAF3C"></path></g></svg>